<?xml version="1.0" standalone="no"?>
<!DOCTYPE svg PUBLIC "-//W3C//DTD SVG 20010904//EN"
 "http://www.w3.org/TR/2001/REC-SVG-20010904/DTD/svg10.dtd">
<svg version="1.0" xmlns="http://www.w3.org/2000/svg"
 width="1138.000000pt" height="462.000000pt" viewBox="0 0 1138.000000 462.000000"
 preserveAspectRatio="xMidYMid meet">

<g transform="translate(0.000000,462.000000) scale(0.100000,-0.100000)"
fill="#000000" stroke="none">
<path d="M0 2310 l0 -2310 5690 0 5690 0 0 2310 0 2310 -5690 0 -5690 0 0
-2310z m3225 2010 c326 -23 489 -82 641 -235 164 -163 223 -349 224 -702 l0
-102 73 -22 c188 -57 229 -73 303 -116 103 -61 225 -183 281 -283 72 -127 87
-209 87 -455 0 -124 -6 -236 -13 -275 -39 -204 -133 -363 -280 -473 -63 -47
-227 -122 -356 -163 -49 -16 -93 -33 -96 -38 -4 -4 -4 -36 -2 -70 8 -93 -14
-334 -37 -428 -37 -145 -80 -219 -189 -328 -135 -136 -264 -198 -485 -236
-121 -20 -420 -15 -531 10 -80 18 -213 82 -264 126 -32 28 -36 29 -55 15 -148
-108 -351 -165 -592 -165 -335 0 -599 117 -763 338 -67 92 -96 151 -127 262
-23 83 -27 121 -33 294 l-6 198 -100 30 c-327 97 -527 279 -595 542 -59 232
-43 627 31 766 11 19 19 38 19 43 0 34 126 173 223 246 92 69 149 97 297 146
l125 42 6 189 c6 220 18 274 87 412 78 156 228 290 402 360 222 89 711 110
883 39 20 -9 64 -34 98 -58 61 -41 62 -41 78 -22 21 27 113 76 181 98 50 17
224 33 295 28 17 -1 102 -7 190 -13z m4960 -1536 c17 -4 39 -14 49 -23 11 -9
16 -10 12 -4 -5 9 -2 11 8 7 9 -3 13 -11 9 -17 -4 -6 0 -8 9 -4 19 7 92 -59
82 -74 -3 -5 0 -8 7 -7 7 2 14 -1 14 -7 1 -5 10 -28 19 -49 25 -56 35 -129 30
-221 -4 -79 -28 -174 -46 -186 -5 -3 -10 -10 -10 -15 -1 -17 -56 -76 -66 -70
-5 3 -16 -2 -23 -12 -13 -15 -12 -16 4 -3 10 8 17 9 17 3 0 -15 -38 -35 -50
-27 -6 4 -9 1 -8 -7 2 -7 -3 -12 -11 -10 -8 2 -17 -2 -21 -7 -8 -13 -147 -33
-173 -25 -10 3 -34 6 -53 6 -19 0 -34 4 -34 10 0 5 -4 6 -10 3 -5 -3 -16 -3
-22 2 -7 4 -15 8 -18 9 -20 4 -39 18 -34 25 3 5 -1 6 -8 4 -15 -6 -78 56 -78
76 0 7 -6 20 -13 28 -47 56 -59 284 -20 381 4 8 7 17 8 20 9 27 38 79 53 96
25 30 69 57 81 50 5 -4 13 -1 17 5 4 8 3 9 -4 5 -7 -4 -12 -5 -12 -2 0 15 58
34 123 41 21 2 41 6 44 9 6 5 75 0 128 -10z m-2427 -6 c18 -22 253 -702 250
-723 -3 -17 -12 -20 -68 -23 -36 -1 -70 1 -76 5 -6 5 -22 42 -36 83 l-25 75
-145 3 -146 3 -23 -76 c-12 -41 -28 -80 -35 -86 -7 -5 -39 -9 -71 -7 -49 3
-58 6 -61 23 -3 22 231 700 249 722 15 18 172 18 187 1z m753 -19 c85 -40 120
-100 120 -205 0 -80 -23 -136 -77 -183 -52 -45 -132 -71 -222 -71 l-62 0 0
-123 c0 -82 -4 -127 -12 -135 -16 -16 -120 -16 -136 0 -9 9 -12 102 -12 358 0
303 2 348 16 369 16 23 19 23 173 19 143 -3 161 -6 212 -29z m383 25 c14 -5
16 -48 16 -374 0 -326 -2 -369 -16 -374 -28 -11 -120 -6 -132 6 -9 9 -12 105
-12 370 0 329 1 358 18 367 19 11 101 15 126 5z m547 -15 c3 -6 9 -10 13 -9
16 4 67 -20 72 -34 3 -9 10 -14 14 -11 5 3 18 -14 29 -38 46 -94 14 -219 -68
-265 -22 -13 -47 -20 -53 -17 -7 4 -3 -3 10 -14 13 -11 21 -25 17 -31 -3 -5 0
-8 7 -5 17 7 62 -60 52 -77 -4 -7 -3 -10 1 -5 9 7 83 -156 91 -199 3 -19 -1
-23 -39 -28 -68 -10 -124 10 -113 41 3 7 2 13 -3 13 -12 0 -55 109 -47 117 3
4 -3 16 -15 29 -11 12 -21 28 -23 36 -3 21 -55 68 -77 69 -11 1 -36 2 -56 3
l-38 1 3 -145 3 -145 -31 -12 c-23 -9 -28 -9 -23 0 5 9 3 9 -8 1 -8 -7 -29 -9
-46 -7 l-33 5 0 356 c0 316 2 357 16 374 15 16 31 17 177 13 98 -3 164 -10
168 -16z m1261 3 c4 -4 9 -126 12 -272 5 -285 7 -311 19 -303 11 6 38 -17 32
-27 -3 -5 0 -12 6 -16 8 -4 9 -3 5 4 -4 7 -2 12 3 12 6 0 11 -5 11 -12 0 -6 2
-9 6 -6 3 3 22 2 42 -3 21 -5 52 -4 72 1 19 5 38 10 42 10 21 3 69 63 73 92 3
18 5 142 6 276 0 202 3 244 14 249 15 5 50 7 98 4 l28 -1 -3 -282 c-3 -254 -5
-287 -22 -321 -24 -49 -74 -100 -111 -114 -17 -6 -39 -15 -50 -19 -72 -28
-275 -15 -275 17 0 5 -6 6 -13 3 -28 -10 -125 111 -113 142 3 7 1 16 -4 19 -5
3 -8 128 -7 277 l2 272 25 7 c27 7 91 1 102 -9z m1128 -2 c12 -19 12 -71 0
-90 -11 -18 -7 -17 -115 -19 l-85 -1 0 -304 c0 -203 -4 -307 -11 -311 -11 -7
-82 -8 -114 -2 -19 4 -20 14 -25 312 l-5 308 -97 -2 c-54 -1 -98 -1 -99 1 -10
50 -8 96 3 106 10 8 89 12 254 14 304 4 284 5 294 -12z m536 -39 c1 -50 -8
-72 -21 -51 -4 6 -12 7 -18 3 -19 -11 -181 -10 -189 2 -5 6 -8 5 -8 -4 0 -11
-3 -11 -17 0 -14 12 -16 12 -8 0 6 -11 4 -13 -8 -8 -13 5 -16 -5 -19 -66 -4
-102 0 -127 19 -120 9 4 14 2 10 -3 -3 -5 3 -10 14 -10 10 0 19 3 19 7 0 4 26
6 58 4 31 -2 73 -4 93 -4 35 -1 35 -2 38 -45 1 -25 -3 -47 -10 -52 -6 -4 -57
-7 -113 -7 -55 0 -107 -2 -113 -5 -9 -3 -13 -35 -13 -112 0 -77 4 -109 13
-112 6 -3 70 -4 140 -3 70 1 130 -3 134 -7 9 -16 5 -80 -6 -91 -7 -7 -73 -10
-199 -9 -103 1 -188 2 -189 2 -2 0 -6 0 -10 -1 -4 0 -10 8 -14 18 -10 25 -11
695 -1 709 11 18 31 19 231 18 l186 -1 1 -52z m514 39 c4 -6 15 -8 25 -4 13 5
16 4 11 -4 -4 -7 -2 -10 6 -7 23 9 73 -31 96 -77 22 -45 31 -145 15 -162 -5
-4 -8 -11 -8 -14 -1 -12 -45 -78 -45 -68 0 6 -6 2 -12 -7 -7 -9 -20 -17 -28
-19 -35 -7 -48 -48 -15 -48 7 0 21 -12 31 -27 28 -42 55 -93 49 -93 -3 0 2
-11 11 -25 8 -13 12 -30 8 -36 -5 -8 -3 -9 6 -4 10 6 12 4 7 -9 -4 -9 -3 -15
1 -12 10 6 48 -102 39 -110 -7 -7 -103 -9 -127 -3 -8 2 -23 24 -33 49 -10 25
-26 58 -34 73 -8 15 -12 36 -8 45 3 9 3 13 -1 9 -7 -6 -36 44 -38 66 -1 5 -14
19 -30 32 -19 15 -26 27 -20 36 6 12 5 12 -8 1 -11 -9 -33 -12 -62 -9 l-46 5
0 -153 0 -153 -30 -4 c-16 -2 -32 0 -35 6 -3 7 -7 7 -11 -2 -5 -10 -11 -10
-31 4 -15 9 -22 11 -18 3 5 -8 4 -10 -4 -5 -18 11 -15 693 3 721 12 19 23 20
171 18 99 -2 161 -6 165 -13z"/>
<path d="M1820 4164 c-14 -2 -59 -9 -100 -15 -91 -13 -232 -66 -303 -113 -50
-33 -138 -137 -170 -201 -44 -89 -57 -162 -57 -335 l0 -168 43 19 c23 11 56
26 72 35 42 23 352 182 460 237 50 25 178 88 285 140 226 109 252 130 253 205
0 30 -6 59 -15 74 -23 35 -103 86 -163 103 -49 15 -256 28 -305 19z"/>
<path d="M3004 4146 c-102 -25 -204 -108 -204 -164 1 -42 35 -107 71 -135 19
-14 198 -105 399 -203 201 -97 415 -203 477 -236 62 -32 124 -63 139 -68 l27
-11 -7 176 c-8 210 -16 260 -57 344 -65 131 -201 229 -394 282 -99 27 -368 36
-451 15z"/>
<path d="M2305 3696 c-180 -83 -712 -347 -922 -459 l-113 -60 0 -39 c0 -61
-29 -187 -56 -240 l-24 -47 0 -470 0 -469 36 -93 c20 -51 41 -129 47 -174 l11
-82 146 -72 c80 -40 273 -134 430 -211 157 -76 321 -158 365 -183 66 -36 84
-43 105 -35 41 16 279 21 389 9 l104 -11 131 66 c473 240 636 324 751 387
l130 70 1 76 c1 74 24 150 58 191 9 12 12 128 12 505 l-1 490 -33 74 c-28 61
-35 90 -39 167 -5 77 -9 94 -22 94 -9 0 -32 10 -51 22 -122 74 -1006 506
-1157 565 -10 4 -13 -46 -13 -231 l0 -236 -30 0 c-16 0 -30 -4 -30 -10 0 -5 7
-10 15 -10 8 0 15 -5 15 -11 0 -5 5 -7 10 -4 7 4 10 -119 11 -362 0 -202 4
-390 7 -418 7 -49 8 -50 77 -92 64 -38 125 -93 125 -111 -1 -4 -10 -18 -21
-31 l-20 -25 -34 36 c-21 21 -61 46 -102 63 l-68 27 -65 -18 c-49 -13 -76 -28
-112 -62 l-48 -45 -19 24 c-15 19 -17 27 -8 38 10 12 9 13 -1 7 -11 -7 -12 -4
-3 12 15 29 46 51 133 97 l76 39 6 51 c12 103 0 1286 -13 1284 -3 0 -87 -38
-186 -83z m-291 -620 c38 -16 81 -80 91 -137 13 -72 -30 -151 -102 -188 -62
-32 -146 1 -189 75 -23 39 -26 53 -22 109 3 58 8 69 38 100 51 53 120 68 184
41z m1186 -11 c52 -36 84 -98 84 -160 0 -62 -33 -129 -74 -150 -43 -22 -112
-29 -154 -15 -107 35 -140 225 -53 307 39 37 49 41 111 42 38 1 59 -5 86 -24z
m-1340 -717 c41 -28 80 -99 80 -146 0 -44 -34 -115 -63 -135 -99 -64 -196 -37
-248 69 -20 42 -21 51 -10 100 11 48 19 60 63 94 42 34 57 40 97 40 33 0 58
-7 81 -22z m1580 0 c19 -13 47 -48 63 -78 25 -45 29 -62 23 -91 -10 -55 -46
-101 -99 -128 -67 -33 -108 -24 -169 39 -50 52 -65 94 -54 154 20 104 151 161
236 104z m-401 -530 c84 -44 120 -173 68 -248 -49 -73 -159 -98 -225 -51 -40
28 -82 98 -82 137 0 144 118 224 239 162z m-885 -2 c18 -8 46 -31 62 -52 25
-32 29 -47 29 -99 0 -52 -4 -67 -28 -98 -32 -43 -69 -64 -125 -73 -113 -18
-204 119 -158 240 9 24 25 51 35 60 39 35 128 46 185 22z"/>
<path d="M774 3016 c-82 -30 -125 -58 -176 -115 -102 -113 -138 -227 -145
-458 -8 -244 16 -396 81 -505 58 -97 176 -184 274 -202 32 -5 33 -4 63 60 20
44 48 83 84 118 l55 52 0 432 0 432 -68 74 c-38 40 -74 87 -81 105 -8 17 -16
31 -20 30 -3 0 -33 -10 -67 -23z"/>
<path d="M4241 2984 c-13 -24 -53 -71 -88 -104 l-63 -59 0 -426 0 -425 60 -57
c33 -31 78 -85 100 -120 45 -71 50 -72 137 -31 103 48 188 154 232 293 48 149
66 438 36 580 -33 158 -134 288 -269 350 -114 52 -117 52 -145 -1z"/>
<path d="M1187 1251 c6 -208 14 -258 59 -349 54 -111 141 -197 251 -251 127
-62 238 -84 438 -85 156 -1 162 0 215 27 59 29 89 53 133 105 45 55 31 125
-36 176 -17 13 -264 141 -548 284 l-516 259 4 -166z"/>
<path d="M3635 1281 c-796 -403 -769 -387 -804 -445 -29 -46 -26 -84 8 -138
75 -117 205 -153 470 -129 262 24 435 120 525 291 55 106 66 162 73 373 3 103
4 186 2 185 -2 0 -125 -62 -274 -137z"/>
<path d="M8030 2670 c-19 -5 -38 -6 -42 -4 -5 3 -8 1 -8 -4 0 -5 -15 -20 -34
-33 -19 -13 -32 -27 -30 -31 2 -4 -1 -10 -8 -15 -7 -4 -14 -17 -16 -28 -2 -11
-8 -45 -13 -75 -12 -59 -7 -154 10 -210 15 -50 69 -106 111 -115 47 -11 140
-12 140 -3 0 5 12 8 26 8 14 0 23 4 19 9 -3 5 3 12 12 15 10 3 31 29 48 58 28
50 30 60 31 166 0 61 -2 112 -6 112 -4 0 -7 7 -8 15 -1 8 -3 22 -4 30 -1 8 -6
15 -11 15 -5 0 -6 7 -3 16 3 8 2 13 -3 10 -4 -3 -19 6 -32 20 -39 42 -112 60
-179 44z"/>
<path d="M5606 2492 c-27 -81 -51 -153 -53 -159 -4 -10 20 -13 101 -13 58 0
106 4 106 8 0 9 -98 303 -103 308 -1 2 -25 -63 -51 -144z"/>
<path d="M6270 2546 l0 -126 50 0 c101 0 150 44 150 134 0 36 -6 52 -29 78
-26 30 -35 33 -100 36 l-71 4 0 -126z"/>
<path d="M7225 2672 c-3 -3 -5 -52 -5 -109 l0 -103 74 0 c60 0 79 4 107 23 33
23 34 24 34 94 0 40 -2 70 -4 67 -2 -2 -9 0 -16 6 -19 16 -177 34 -190 22z"/>
<path d="M10670 2568 l0 -108 69 0 c65 0 160 28 145 42 -3 3 2 23 10 43 18 42
20 57 6 35 -8 -12 -10 -10 -10 10 -1 31 -32 69 -62 76 -13 3 -53 6 -90 7 l-68
3 0 -108z"/>
</g>
</svg>
